{"title":"Thug Le (Ladies vs Ricky Bahl) - Full Song - H.264 - 720p DVDRip","uid":6969758,"size":83517002,"categoryP":"video","categoryS":"music_videos","magnet":"?xt=urn:btih:58c318b73972c8af9d40a3c83fa1d3a99cf95885&amp;dn=Thug+Le+%28Ladies+vs+Ricky+Bahl%29+-+Full+Song+-+H.264+-+720p+DVDRip&amp;tr=udp%3A%2F%2Ftracker.openbittorrent.com%3A80&amp;tr=udp%3A%2F%2Fopen.demonii.com%3A1337&amp;tr=udp%3A%2F%2Ftracker.coppersurfer.tk%3A6969&amp;tr=udp%3A%2F%2Fexodus.desync.com%3A6969","seeders":1,"leechers":0,"uploader":"AbhiHKRG","files":6,"time":1327049411,"description":"Cover ::\n &lt;a href=&quot;\nhttp://i.minus.com/idBC9I8B5jkEN.png&quot; rel=&quot;nofollow&quot; target=&quot;_NEW&quot;&gt;\nhttp://i.minus.com/idBC9I8B5jkEN.png&lt;/a&gt;\n\n\nScreen ::\n &lt;a href=&quot;\nhttp://i.minus.com/ibcvKhOsHHYBuG.png&quot; rel=&quot;nofollow&quot; target=&quot;_NEW&quot;&gt;\nhttp://i.minus.com/ibcvKhOsHHYBuG.png&lt;/a&gt;\n &lt;a href=&quot;\nhttp://i.minus.com/iDCob3TMnCv8A.png&quot; rel=&quot;nofollow&quot; target=&quot;_NEW&quot;&gt;\nhttp://i.minus.com/iDCob3TMnCv8A.png&lt;/a&gt;\n &lt;a href=&quot;\nhttp://i.minus.com/iKAGtqs2zqdHg.png&quot; rel=&quot;nofollow&quot; target=&quot;_NEW&quot;&gt;\nhttp://i.minus.com/iKAGtqs2zqdHg.png&lt;/a&gt;\n &lt;a href=&quot;\nhttp://i.minus.com/ibetKXSCiwQX5g.png&quot; rel=&quot;nofollow&quot; target=&quot;_NEW&quot;&gt;\nhttp://i.minus.com/ibetKXSCiwQX5g.png&lt;/a&gt;\n &lt;a href=&quot;\nhttp://i.minus.com/ibhtDsTyUZaDxf.png&quot; rel=&quot;nofollow&quot; target=&quot;_NEW&quot;&gt;\nhttp://i.minus.com/ibhtDsTyUZaDxf.png&lt;/a&gt;\n &lt;a href=&quot;\nhttp://i.minus.com/i3hZHgotDkh4t.png&quot; rel=&quot;nofollow&quot; target=&quot;_NEW&quot;&gt;\nhttp://i.minus.com/i3hZHgotDkh4t.png&lt;/a&gt;\n &lt;a href=&quot;\nhttp://i.minus.com/iub1JSJ0oXTRf.png&quot; rel=&quot;nofollow&quot; target=&quot;_NEW&quot;&gt;\nhttp://i.minus.com/iub1JSJ0oXTRf.png&lt;/a&gt;\n &lt;a href=&quot;\nhttp://i.minus.com/iVhAn80HFfsx4.jpg&quot; rel=&quot;nofollow&quot; target=&quot;_NEW&quot;&gt;\nhttp://i.minus.com/iVhAn80HFfsx4.jpg&lt;/a&gt;\n\n\nGeneral Info ::\nFormat                           : AVI\nFormat/Info                      : Audio Video Interleave\nFile size                        : 79.6 MiB\nDuration                         : 3mn 38s\nOverall bit rate                 : 3 058 Kbps\n\n\nVideo Info ::\nID                               : 0\nFormat                           : AVC\nFormat/Info                      : Advanced Video Codec\nFormat profile                   : &lt;a class=&quot;__cf_email__&quot; href=&quot;/cdn-cgi/l/email-protection&quot; data-cfemail=&quot;1d55747a755d5128332c&quot;&gt;[email&amp;#160;protected]&lt;/a&gt;&lt;script cf-hash='f9e31' type=&quot;text/javascript&quot;&gt;\n/* &lt;![CDATA[ */!function(){try{var t=&quot;currentScript&quot;in document?document.currentScript:function(){for(var t=document.getElementsByTagName(&quot;script&quot;),e=t.length;e--;)if(t[e].getAttribute(&quot;cf-hash&quot;))return t[e]}();if(t&amp;&amp;t.previousSibling){var e,r,n,i,c=t.previousSibling,a=c.getAttribute(&quot;data-cfemail&quot;);if(a){for(e=&quot;&quot;,r=parseInt(a.substr(0,2),16),n=2;a.length-n;n+=2)i=parseInt(a.substr(n,2),16)^r,e+=String.fromCharCode(i);e=document.createTextNode(e),c.parentNode.replaceChild(e,c)}}}catch(u){}}();/* ]]&gt; */&lt;/script&gt;\nFormat settings, CABAC           : Yes\nFormat settings, ReFrames        : 2 frames\nCodec ID                         : H264\nDuration                         : 10s 0ms\nBit rate                         : 2 727 Kbps\nWidth                            : 1 280 pixels\nHeight                           : 544 pixels\nDisplay aspect ratio             : 2.35:1\nFrame rate                       : 30.000 fps\nColor space                      : YUV\nChroma subsampling               : 4:2:0\nBit depth                        : 8 bits\nScan type                        : Progressive\nBits/(Pixel*Frame)               : 0.131\nStream size                      : 71.0 MiB (89%)\n\n\nAudio Info ::\nID                               : 1\nFormat                           : MPEG Audio\nFormat version                   : Version 1\nFormat profile                   : Layer 3\nCodec ID                         : 55\nCodec ID/Hint                    : MP3\nDuration                         : 3mn 38s\nBit rate mode                    : Constant\nBit rate                         : 320 Kbps\nChannel(s)                       : 2 channels\nSampling rate                    : 48.0 KHz\nCompression mode                 : Lossy\nStream size                      : 8.33 MiB (10%)","torrent":{"xt":"urn:btih:58c318b73972c8af9d40a3c83fa1d3a99cf95885","amp;dn":"Thug+Le+%28Ladies+vs+Ricky+Bahl%29+-+Full+Song+-+H.264+-+720p+DVDRip","amp;tr":["udp%3A%2F%2Ftracker.openbittorrent.com%3A80","udp%3A%2F%2Fopen.demonii.com%3A1337","udp%3A%2F%2Ftracker.coppersurfer.tk%3A6969","udp%3A%2F%2Fexodus.desync.com%3A6969"],"infoHash":"58c318b73972c8af9d40a3c83fa1d3a99cf95885","infoHashBuffer":{"type":"Buffer","data":[88,195,24,183,57,114,200,175,157,64,163,200,63,161,211,169,156,249,88,133]},"announce":[],"urlList":[]}}